<?xml version="1.0" standalone="no"?>
<!DOCTYPE svg PUBLIC "-//W3C//DTD SVG 20010904//EN"
 "http://www.w3.org/TR/2001/REC-SVG-20010904/DTD/svg10.dtd">
<svg version="1.0" xmlns="http://www.w3.org/2000/svg"
 width="73.000000pt" height="73.000000pt" viewBox="0 0 73.000000 73.000000"
 preserveAspectRatio="xMidYMid meet">
<metadata>
Created by potrace 1.11, written by Peter Selinger 2001-2013
</metadata>
<g transform="translate(0.000000,73.000000) scale(0.100000,-0.100000)"
fill="#000000" stroke="none">
<path d="M139 645 c-36 -20 -42 -36 -49 -140 -4 -81 -7 -91 -27 -100 -33 -14
-31 -58 2 -73 24 -11 25 -16 25 -91 0 -97 10 -125 52 -151 27 -16 71 -20 83
-8 13 14 7 68 -7 63 -28 -10 -36 12 -39 103 -3 74 -8 96 -21 106 -16 12 -16
14 0 29 12 12 17 39 19 99 4 99 7 108 32 108 19 0 30 23 23 53 -4 21 -55 23
-93 2z"/>
<path d="M490 626 c0 -31 3 -36 24 -36 30 0 36 -20 36 -122 0 -62 3 -79 17
-87 17 -9 17 -10 0 -28 -13 -16 -17 -38 -17 -107 l0 -88 -30 -11 c-23 -9 -30
-18 -30 -38 0 -29 17 -40 52 -34 68 13 88 46 88 143 0 84 7 110 31 117 24 8
27 65 4 65 -24 0 -35 35 -35 119 0 101 -20 130 -93 138 l-47 6 0 -37z"/>
</g>
</svg>
